<?xml version="1.0" standalone="no"?>
<!DOCTYPE svg PUBLIC "-//W3C//DTD SVG 20010904//EN"
 "http://www.w3.org/TR/2001/REC-SVG-20010904/DTD/svg10.dtd">
<svg version="1.0" xmlns="http://www.w3.org/2000/svg"
 width="1324.000000pt" height="1324.000000pt" viewBox="0 0 1324.000000 1324.000000"
 preserveAspectRatio="xMidYMid meet">
<metadata>
Created by potrace 1.11, written by Peter Selinger 2001-2013
</metadata>
<g transform="translate(0.000000,1324.000000) scale(0.100000,-0.100000)"
fill="#000000" stroke="none">
<path d="M6915 11800 c-3 -5 -1 -10 4 -10 6 0 11 5 11 10 0 6 -2 10 -4 10 -3
0 -8 -4 -11 -10z"/>
<path d="M6398 11205 c-2 -2 -46 -6 -98 -9 -52 -4 -108 -9 -125 -12 -16 -2
-48 -6 -70 -8 -22 -2 -51 -6 -65 -10 -14 -3 -43 -8 -65 -11 -36 -5 -118 -19
-170 -29 -11 -2 -83 -20 -160 -41 -77 -20 -147 -38 -155 -40 -8 -2 -28 -8 -43
-14 -16 -6 -34 -8 -40 -4 -7 3 -9 2 -4 -2 4 -5 -28 -21 -70 -36 -87 -30 -123
-45 -221 -91 -37 -17 -69 -32 -72 -33 -12 -2 -100 -51 -168 -92 -40 -24 -77
-41 -84 -37 -7 4 -8 3 -4 -5 4 -6 0 -14 -11 -18 -10 -4 -20 -10 -23 -13 -3 -4
-45 -38 -95 -75 -106 -80 -330 -302 -335 -333 0 -4 -9 -16 -18 -27 -10 -11
-27 -38 -38 -60 -12 -22 -31 -57 -43 -78 -27 -48 -71 -157 -64 -157 3 0 0 -7
-7 -15 -7 -8 -10 -15 -6 -15 3 0 2 -10 -3 -23 -5 -13 -12 -39 -15 -58 -3 -19
-8 -45 -11 -59 -6 -30 -7 -220 -2 -270 8 -66 61 -237 93 -299 7 -14 10 -29 7
-34 -3 -6 -2 -7 3 -4 6 3 21 -15 34 -41 23 -44 117 -178 150 -213 59 -62 132
-136 142 -144 56 -44 83 -70 80 -77 -1 -5 2 -7 7 -4 5 4 22 -4 38 -17 39 -33
204 -142 226 -150 16 -6 18 -14 12 -50 -3 -23 -8 -62 -12 -86 -9 -70 -18 -94
-39 -105 -10 -6 -21 -13 -24 -17 -3 -3 -34 -25 -70 -50 -36 -24 -68 -48 -72
-54 -4 -5 -8 -7 -8 -3 0 3 -14 -7 -30 -24 -19 -18 -36 -28 -46 -24 -9 4 -12 2
-8 -5 4 -6 2 -14 -4 -18 -16 -10 -111 -92 -159 -139 -25 -23 -49 -39 -55 -36
-6 4 -8 3 -5 -3 3 -5 -31 -48 -76 -95 -45 -47 -97 -104 -115 -127 -19 -22 -39
-38 -44 -34 -7 3 -8 1 -4 -5 4 -6 -19 -44 -51 -84 -54 -68 -84 -109 -145 -200
-14 -20 -29 -34 -33 -30 -5 4 -5 1 -1 -6 5 -8 2 -21 -7 -30 -35 -41 -156 -268
-230 -432 -76 -170 -189 -544 -212 -705 -3 -23 -7 -52 -10 -65 -3 -14 -7 -45
-11 -70 -3 -25 -7 -56 -9 -70 -21 -146 -22 -662 -1 -720 3 -8 7 -37 10 -65 5
-49 10 -80 22 -148 3 -17 7 -51 8 -74 0 -22 4 -39 9 -36 4 2 7 -2 8 -9 0 -7 3
-22 5 -33 3 -11 6 -31 8 -45 2 -14 7 -34 11 -45 4 -11 11 -31 16 -45 5 -14 10
-34 12 -45 1 -11 6 -25 9 -31 7 -10 19 -58 20 -81 1 -7 6 -13 11 -13 6 0 8 -3
5 -6 -4 -3 7 -37 22 -75 16 -38 26 -69 23 -69 -3 0 0 -7 7 -15 6 -8 9 -19 5
-25 -3 -5 -2 -10 3 -10 6 0 22 -30 37 -67 15 -38 31 -74 37 -81 6 -6 7 -12 2
-12 -5 0 -4 -4 1 -8 19 -14 86 -152 79 -164 -4 -7 -3 -8 4 -4 7 4 12 1 12 -8
0 -9 3 -16 8 -16 4 0 18 -23 31 -50 14 -28 29 -50 33 -50 4 0 8 -5 8 -11 0 -5
25 -46 55 -89 56 -81 64 -97 43 -84 -8 4 -10 3 -5 -2 5 -5 13 -9 17 -9 5 0 41
-42 81 -94 39 -51 79 -101 88 -111 9 -9 43 -47 76 -84 79 -89 129 -139 211
-212 37 -32 75 -66 83 -74 9 -8 35 -30 59 -48 23 -19 40 -38 37 -43 -4 -5 0
-7 7 -4 20 8 68 -42 69 -73 0 -15 2 -36 4 -47 1 -11 6 -42 9 -70 4 -27 9 -61
11 -74 2 -13 7 -45 11 -70 4 -25 8 -55 10 -66 10 -54 18 -124 19 -162 0 -22 3
-39 8 -36 4 2 7 -11 8 -29 0 -18 2 -40 4 -48 5 -23 55 -343 55 -351 0 -5 236
-7 525 -6 289 1 525 -2 525 -6 0 -5 5 -5 11 -1 16 9 109 11 109 1 0 -5 4 -5
10 -2 9 6 94 9 115 5 6 -1 14 -2 20 -1 12 3 207 3 220 1 6 -2 14 -1 20 0 23 4
156 2 161 -3 4 -3 17 -2 30 3 16 6 24 6 24 -1 0 -6 5 -7 10 -4 9 6 606 10 635
4 6 -1 15 0 20 1 13 2 167 2 180 0 6 -1 14 -1 20 0 5 1 197 2 427 2 410 0 418
0 418 19 0 11 3 18 8 16 4 -3 8 27 10 65 1 39 5 75 9 81 3 5 7 24 9 41 9 89
22 203 30 246 5 28 11 77 20 160 3 30 7 66 9 80 3 35 18 153 20 165 1 6 3 20
3 32 2 24 96 98 113 88 5 -4 8 -2 7 2 -5 16 159 150 176 145 6 -2 8 -1 4 3 -4
4 18 30 48 57 87 81 175 170 231 234 28 32 65 75 82 94 17 19 31 39 31 43 0 5
6 5 13 1 6 -4 9 -4 5 0 -4 5 14 36 40 70 26 34 63 85 82 113 19 28 38 49 44
46 5 -3 6 -1 2 5 -3 6 0 16 7 24 7 7 14 16 16 20 3 12 34 66 69 121 18 29 42
73 54 99 12 26 26 44 31 41 6 -3 7 -1 4 5 -4 5 4 32 17 59 14 27 29 61 35 76
6 15 15 27 21 27 6 0 9 4 6 9 -3 4 9 46 28 92 37 95 48 123 46 127 0 1 6 15
15 32 8 16 15 38 15 50 0 11 4 20 8 20 4 0 8 8 9 18 1 9 6 35 13 57 6 22 16
58 21 80 5 22 12 47 16 55 7 18 9 25 17 70 3 19 8 45 11 57 10 44 12 58 20
108 11 78 20 146 31 250 9 90 11 453 2 525 -5 36 -3 59 5 69 9 12 9 13 0 7 -9
-5 -13 0 -14 16 0 13 -2 32 -4 43 -2 11 -6 45 -9 76 -4 31 -9 67 -12 80 -3 13
-7 37 -9 52 -2 15 -18 86 -35 157 -18 71 -28 135 -24 141 4 7 3 9 -2 6 -7 -4
-63 143 -69 183 -1 3 -9 22 -18 44 -9 21 -17 42 -17 47 0 17 -134 305 -173
374 -13 22 -34 58 -46 79 -12 22 -39 65 -59 95 -20 31 -42 66 -48 78 -16 29
-184 249 -218 286 -15 16 -23 34 -20 40 4 7 3 9 -1 4 -13 -11 -94 83 -88 102
3 11 2 12 -4 4 -6 -9 -29 8 -81 61 -39 40 -74 71 -77 68 -3 -3 -5 -1 -5 4 0 5
-34 38 -75 73 -41 34 -73 66 -70 70 2 4 -2 8 -9 8 -19 0 -167 114 -160 124 3
5 -1 6 -9 4 -7 -3 -25 6 -40 19 -15 14 -31 27 -35 28 -4 2 -6 7 -4 11 1 5 -2
6 -8 2 -12 -8 -53 19 -43 29 4 4 0 4 -8 1 -19 -7 -40 16 -45 48 -2 12 -7 38
-12 57 -12 48 -8 55 46 81 26 13 53 29 60 36 13 13 28 17 47 13 6 -1 7 1 3 5
-4 4 24 28 61 53 66 45 139 102 168 130 7 7 18 10 24 6 7 -4 9 -3 6 3 -3 5 25
40 64 78 38 38 69 72 69 77 0 4 7 8 16 8 8 0 12 5 9 10 -3 6 -3 10 2 10 4 0
19 16 32 35 13 19 28 32 34 28 5 -3 7 -1 4 4 -4 6 9 35 29 65 165 244 219 537
149 813 -15 60 -34 119 -41 130 -8 11 -14 25 -14 31 0 21 -96 183 -150 254
-86 111 -205 228 -315 309 -33 25 -61 48 -63 53 -2 4 -8 8 -13 8 -6 0 -36 17
-67 38 -31 21 -87 56 -125 76 -37 21 -65 42 -62 47 4 5 0 6 -8 3 -8 -3 -41 9
-74 25 -33 17 -66 31 -72 31 -7 0 -9 5 -5 12 4 7 3 8 -4 4 -6 -4 -19 -2 -29 3
-58 32 -373 139 -478 162 -22 5 -49 11 -60 14 -52 12 -75 17 -135 30 -36 7
-81 15 -100 18 -19 3 -46 8 -60 11 -28 5 -140 18 -280 31 -19 2 -35 4 -35 5 0
3 -524 8 -527 5z"/>
<path d="M3870 9200 c0 -5 5 -10 11 -10 5 0 7 5 4 10 -3 6 -8 10 -11 10 -2 0
-4 -4 -4 -10z"/>
<path d="M8816 8767 c3 -10 9 -15 12 -12 3 3 0 11 -7 18 -10 9 -11 8 -5 -6z"/>
<path d="M8900 8766 c0 -2 8 -10 18 -17 15 -13 16 -12 3 4 -13 16 -21 21 -21
13z"/>
<path d="M9470 8721 c0 -6 4 -13 10 -16 6 -3 7 1 4 9 -7 18 -14 21 -14 7z"/>
<path d="M8670 8640 c0 -5 5 -10 11 -10 5 0 7 5 4 10 -3 6 -8 10 -11 10 -2 0
-4 -4 -4 -10z"/>
<path d="M9466 8642 c-3 -5 1 -9 9 -9 8 0 12 4 9 9 -3 4 -7 8 -9 8 -2 0 -6 -4
-9 -8z"/>
<path d="M8950 8621 c0 -6 4 -13 10 -16 6 -3 7 1 4 9 -7 18 -14 21 -14 7z"/>
<path d="M8670 8560 c0 -5 5 -10 11 -10 5 0 7 5 4 10 -3 6 -8 10 -11 10 -2 0
-4 -4 -4 -10z"/>
<path d="M4796 8518 c3 -5 10 -6 15 -3 13 9 11 12 -6 12 -8 0 -12 -4 -9 -9z"/>
<path d="M8753 8485 c0 -8 4 -12 9 -9 5 3 6 10 3 15 -9 13 -12 11 -12 -6z"/>
<path d="M8560 8400 c-9 -6 -10 -10 -3 -10 6 0 15 5 18 10 8 12 4 12 -15 0z"/>
<path d="M4433 8315 c0 -8 4 -12 9 -9 5 3 6 10 3 15 -9 13 -12 11 -12 -6z"/>
<path d="M3635 8081 c-3 -5 -2 -12 3 -15 5 -3 9 1 9 9 0 17 -3 19 -12 6z"/>
<path d="M4346 8002 c-3 -5 1 -9 9 -9 8 0 12 4 9 9 -3 4 -7 8 -9 8 -2 0 -6 -4
-9 -8z"/>
<path d="M3466 7602 c-3 -5 1 -9 9 -9 8 0 12 4 9 9 -3 4 -7 8 -9 8 -2 0 -6 -4
-9 -8z"/>
<path d="M9946 6802 c-3 -5 1 -9 9 -9 8 0 12 4 9 9 -3 4 -7 8 -9 8 -2 0 -6 -4
-9 -8z"/>
<path d="M3070 6080 c0 -5 5 -10 11 -10 5 0 7 5 4 10 -3 6 -8 10 -11 10 -2 0
-4 -4 -4 -10z"/>
<path d="M3356 4367 c3 -10 9 -15 12 -12 3 3 0 11 -7 18 -10 9 -11 8 -5 -6z"/>
<path d="M3965 3640 c-3 -6 1 -7 9 -4 18 7 21 14 7 14 -6 0 -13 -4 -16 -10z"/>
<path d="M9275 3589 c-4 -6 -5 -12 -2 -15 2 -3 7 2 10 11 7 17 1 20 -8 4z"/>
<path d="M4156 3482 c-3 -5 1 -9 9 -9 8 0 12 4 9 9 -3 4 -7 8 -9 8 -2 0 -6 -4
-9 -8z"/>
<path d="M9515 3160 c-3 -5 -1 -10 4 -10 6 0 11 5 11 10 0 6 -2 10 -4 10 -3 0
-8 -4 -11 -10z"/>
<path d="M4513 2995 c0 -8 4 -12 9 -9 5 3 6 10 3 15 -9 13 -12 11 -12 -6z"/>
<path d="M8856 2998 c3 -5 10 -6 15 -3 13 9 11 12 -6 12 -8 0 -12 -4 -9 -9z"/>
<path d="M4515 2320 c3 -5 8 -10 11 -10 2 0 4 5 4 10 0 6 -5 10 -11 10 -5 0
-7 -4 -4 -10z"/>
<path d="M4840 1960 c-9 -6 -10 -10 -3 -10 6 0 15 5 18 10 8 12 4 12 -15 0z"/>
<path d="M6869 1883 c-13 -16 -12 -17 4 -4 16 13 21 21 13 21 -2 0 -10 -8 -17
-17z"/>
<path d="M5473 1755 c0 -8 4 -12 9 -9 5 3 6 10 3 15 -9 13 -12 11 -12 -6z"/>
</g>
</svg>
